<svg xmlns="http://www.w3.org/2000/svg" xmlns:xlink="http://www.w3.org/1999/xlink" viewBox="0 0 525 350">
  <defs>
    <linearGradient id="linear-gradient" x1="446.97" y1="160.72" x2="104.76" y2="232.3" gradientUnits="userSpaceOnUse">
      <stop offset="0"/>
      <stop offset="0.16" stop-color="#161616"/>
      <stop offset="0.49" stop-color="#4e4e4e"/>
      <stop offset="0.97" stop-color="#a8a8a8"/>
      <stop offset="1" stop-color="#aeaeae"/>
    </linearGradient>
  </defs>
  <title>1</title>
  <g style="isolation: isolate">
    <g id="layer">
      <g>
        <rect width="525" height="350" fill="#6a96be"/>
        <rect y="248" width="525" height="102" fill="#4d81a0"/>
      </g>
      <g>
        <g>
          <path d="M204.91,292.5a2.21,2.21,0,0,0,2.21,2.21H517.67a2.21,2.21,0,0,0,2.21-2.21h0a2.21,2.21,0,0,0-2.21-2.21H207.12a2.21,2.21,0,0,0-2.21,2.21Z" fill="#1e1f1f" opacity="0.6"/>
          <g>
            <g>
              <rect x="273.18" y="263.28" width="15.96" height="28.99" rx="2.52" fill="#032133"/>
              <rect x="230.1" y="263.28" width="15.96" height="28.99" rx="2.52" fill="#032133"/>
              <rect x="223.08" y="201.14" width="71.88" height="87.12" rx="11.43" fill="#1e446e"/>
              <path d="M295,277.16a11.42,11.42,0,0,1-11.41,11.1h-49a11.42,11.42,0,0,1-11.41-11.1Z" fill="#032133"/>
              <path d="M275.78,234.78,297,157.35c3.5-12.75,12-23.09,19-23.09H452.38c3-7.21,8.64-12.08,15.12-12.08,9.61,0,17.41,10.69,17.41,23.87,0,12.22-6.71,22.3-15.36,23.69l-17.86,65c-3.5,12.75-12,23.09-19,23.09H282.11C275.11,257.87,272.28,247.53,275.78,234.78Z" fill="#052842"/>
              <path d="M241.06,276.84a11.42,11.42,0,0,0,11.42,11.42H442.73a11.42,11.42,0,0,0,11.42-11.42V212.57a11.42,11.42,0,0,0-11.42-11.43H252.48c-6.31,0-28.38,5.12-28.38,11.43Z" fill="#052842"/>
              <path d="M270.53,223.17l21.26-77.43c3.5-12.75,12-23.09,19-23.09H464.06c-6.37,1.76-11.48,8.29-13.27,16.75l-24.63,86c-3.5,12.75-5.07,20.84-12.06,20.84H276.86C269.86,246.26,267,235.93,270.53,223.17Z" fill="#1e446e"/>
              <path d="M277.93,196.24H434.52l-8.36,29.18c-3.5,12.75-5.07,20.84-12.06,20.84H276.86c-7,0-9.83-10.33-6.33-23.09Z" fill="#173d60"/>
              <path d="M453.14,132.62H297.65c3.94-6,8.83-10,13.16-10H464.06C459.53,123.9,455.65,127.57,453.14,132.62Z" fill="#09659c"/>
              <rect x="252.48" y="287.55" width="190.24" height="1.43" fill="#09659c"/>
              <path d="M223.08,212.57s-.1,2.05-.27,5.64c-.08,1.79-.17,4-.27,6.47,0,1.25-.11,2.58-.17,4s0,2.88,0,4.42v43.57c0,.59,0,1,.09,1.59A12.17,12.17,0,0,0,230,288.1a12.76,12.76,0,0,0,3.09.79c.53.05,1.07.07,1.58.09H263c1.54,0,3,0,4.42,0l4-.16,6.47-.27,5.64-.27L277.9,288l-6.47-.26-4-.17c-1.4-.07-2.88,0-4.42,0H234.67c-.49,0-.94,0-1.41-.08a11.28,11.28,0,0,1-2.73-.69,10.8,10.8,0,0,1-5.94-5.9,11.25,11.25,0,0,1-.71-2.75c-.06-.45-.07-1.05-.08-1.48V233.08c0-1.54,0-3,0-4.42s-.11-2.73-.16-4c-.11-2.5-.2-4.68-.28-6.47C223.18,214.62,223.08,212.57,223.08,212.57Z" fill="#09659c"/>
              <path d="M241.77,235.2v41.7l0,.41a9.27,9.27,0,0,0,.17,1.48,10,10,0,0,0,.87,2.66,14.12,14.12,0,0,0,1.37,2.2,11.09,11.09,0,0,0,4.88,3.81,12.5,12.5,0,0,0,2.48.68l.92.12-.93,0a11.22,11.22,0,0,1-2.63-.32,12.12,12.12,0,0,1-3.81-1.72,12.85,12.85,0,0,1-2-1.71,10.33,10.33,0,0,1-1.58-2.47,11.71,11.71,0,0,1-1-3,11.06,11.06,0,0,1-.18-1.66l0-.4V235.2Z" fill="#09659c"/>
              <ellipse cx="469.24" cy="146.05" rx="7.68" ry="10.54" fill="#032133"/>
              <path d="M464.06,122.65c-.45.13-.91.23-1.36.37s-.9.3-1.32.51a10.06,10.06,0,0,0-1.27.64,10.21,10.21,0,0,0-1.21.76,11.76,11.76,0,0,0-1.15.85,13.71,13.71,0,0,0-1.07,1,13.88,13.88,0,0,0-1,1c-.34.35-.64.72-.94,1.09s-.59.76-.87,1.15a14,14,0,0,0-.79,1.21,9.59,9.59,0,0,0-.67,1.27c-.21.43-.41.87-.59,1.32s-.38.88-.53,1.33-.33.9-.46,1.36c-.29.91-.51,1.84-.73,2.78l0,0-12.32,43-6.16,21.51-1.54,5.37c-.24.9-.55,1.78-.77,2.69l-.64,2.73c-.84,3.63-1.71,7.26-2.52,10.91,1.25-3.52,2.43-7.06,3.63-10.6l.91-2.65c.29-.88.5-1.79.77-2.68l1.54-5.38,6.15-21.5,12.32-43h0v0c.21-.89.42-1.77.7-2.64.11-.44.29-.87.44-1.3s.32-.85.5-1.27a11.4,11.4,0,0,1,.57-1.23c.2-.41.41-.81.63-1.21a22.23,22.23,0,0,1,1.35-2.37,12.39,12.39,0,0,1,.79-1.11,12.58,12.58,0,0,1,.86-1.07,11,11,0,0,1,.93-1,16.67,16.67,0,0,1,2.11-1.77c.36-.28.77-.5,1.16-.75a13.07,13.07,0,0,1,1.23-.65C463.18,123,463.62,122.83,464.06,122.65Z" fill="#09659c"/>
              <path d="M241.14,224.86c0,13.18-6.62,23.86-12.93,23.86C212.48,256,206.34,238,206.34,224.86S214.13,201,223.74,201,241.14,211.68,241.14,224.86Z" fill="#1e446e"/>
              <path d="M230.66,224.86c0-5.82-3.44-10.53-7.68-10.53s-7.68,4.71-7.68,10.53,3.44,10.54,7.68,10.54S230.66,230.68,230.66,224.86Z" fill="#052842"/>
              <g>
                <rect x="229.39" y="227.1" width="181.65" height="40.69" rx="18.57" fill="#1e446e"/>
                <path d="M229.4,245.46A18.56,18.56,0,0,1,248,227.1H392.48A18.56,18.56,0,0,1,411,245.46Z" fill="#09659c"/>
                <path d="M409.91,255.63a18.57,18.57,0,0,1-17.43,12.16H248a18.57,18.57,0,0,1-17.43-12.16Z" fill="#032133"/>
              </g>
              <path d="M398,227.25v40.38a18.56,18.56,0,0,1-16.19-18.4v-3.57A18.57,18.57,0,0,1,398,227.25Z" fill="#052842"/>
              <path d="M248,227.1h-.41c-.27,0-.67,0-1.19,0a17.6,17.6,0,0,0-4.49.74,18.83,18.83,0,0,0-9.47,6.43A19,19,0,0,0,230,238.6a19.24,19.24,0,0,0-1.25,5.23c-.09.93-.09,1.89-.09,2.81v2.84A19.3,19.3,0,0,0,243.74,268a20.29,20.29,0,0,0,3.39.44c1.16,0,2.22,0,3.34,0h125.3c3.33.07,6.39-.11,9.09-.2l7-.26,6.11-.26-6.11-.26-7-.26c-2.7-.09-5.76-.27-9.09-.19H250.47c-1.09,0-2.24,0-3.28,0a18.13,18.13,0,0,1-3.13-.42,17.86,17.86,0,0,1-13.95-17.2c0-1.86-.06-3.79.08-5.47a17.73,17.73,0,0,1,3.38-8.85,19.61,19.61,0,0,1,2.71-3.15,18,18,0,0,1,5.77-3.61,19.08,19.08,0,0,1,4.32-1.11c.51-.07.91-.11,1.18-.12Z" fill="#09659c"/>
              <path d="M392.4,266l-.41-.3c-.28-.2-.69-.48-1.16-.88a19.24,19.24,0,0,1-1.63-1.47,12.72,12.72,0,0,1-.91-1c-.31-.35-.72-.64-1-1a17.93,17.93,0,0,1-2-2.61,18.54,18.54,0,0,1-1.63-3.31,18.24,18.24,0,0,1-.94-3.82,29.44,29.44,0,0,1-.16-4.14c0-.69,0-1.44,0-2.1l0-1.05.11-1a17.56,17.56,0,0,1,.94-3.81,18.54,18.54,0,0,1,1.63-3.31,18,18,0,0,1,2-2.62c.32-.4.74-.68,1-1a12.72,12.72,0,0,1,.91-1,16.44,16.44,0,0,1,1.64-1.47c.48-.4.88-.68,1.15-.87l.42-.3-.48.17a12.37,12.37,0,0,0-1.37.54,16.91,16.91,0,0,0-2,1.09c-.37.24-.79.48-1.19.79a9.17,9.17,0,0,0-1.13,1.12,19.19,19.19,0,0,0-2.17,2.82,19.08,19.08,0,0,0-2.78,7.71l-.12,1.1,0,1.06c0,.76,0,1.43,0,2.15a30.15,30.15,0,0,0,.17,4.33,19.11,19.11,0,0,0,2.78,7.7,19.74,19.74,0,0,0,2.17,2.82,9.17,9.17,0,0,0,1.13,1.12c.39.32.81.56,1.18.81a15.38,15.38,0,0,0,2,1.08,10.86,10.86,0,0,0,1.37.53Z" fill="#09659c"/>
              <path d="M225.64,201.14h50.94l-3,11H238.48C235.72,206.16,231.05,202,225.64,201.14Z" fill="#09659c"/>
              <path d="M223.3,261.48c-.21-3.73-.39-7.45-.56-11.18l.59.51A13.61,13.61,0,0,1,220,251a11,11,0,0,1-3.37-.8,14.22,14.22,0,0,1-5.23-4.39,24.58,24.58,0,0,1-3.2-5.86,37.39,37.39,0,0,1-1.83-6.35,44.66,44.66,0,0,1-.82-6.53c-.05-1.07-.07-2.22,0-3.28a33.26,33.26,0,0,1,.27-3.32,28.72,28.72,0,0,1,4.55-12.4,20.57,20.57,0,0,1,4.6-4.9,15.35,15.35,0,0,1,6.18-2.82,13.18,13.18,0,0,1,3.42-.24,13.87,13.87,0,0,1,3.4.61,16.09,16.09,0,0,1,5.88,3.39,21.78,21.78,0,0,1,4.24,5.19,28.65,28.65,0,0,1,1.52,3,15.25,15.25,0,0,1,1.09,3.15,32.2,32.2,0,0,1,.85,6.53,34.29,34.29,0,0,1-.48,6.49c0-1.08,0-2.15-.08-3.23s-.16-2.13-.32-3.18a30.06,30.06,0,0,0-1.58-6.12c-.4-1-.73-2-1.13-2.92a24.1,24.1,0,0,0-1.42-2.77,20.08,20.08,0,0,0-3.88-4.76,14.23,14.23,0,0,0-5.22-3,12.39,12.39,0,0,0-2.93-.54,11.59,11.59,0,0,0-3,.21,13.6,13.6,0,0,0-5.45,2.5,18.81,18.81,0,0,0-4.2,4.47,27,27,0,0,0-4.24,11.62,30.05,30.05,0,0,0-.26,3.12c0,1.09,0,2.09,0,3.16a45.32,45.32,0,0,0,.78,6.27,35.74,35.74,0,0,0,1.75,6,22.48,22.48,0,0,0,3,5.43,12.16,12.16,0,0,0,4.56,3.83,10.38,10.38,0,0,0,2.79,1,12.91,12.91,0,0,0,3.05.19l.61,0,0,.54C223.64,254,223.49,257.75,223.3,261.48Z" fill="#09659c"/>
            </g>
            <path d="M328.56,226.9c8.5-3.16,3.58-16.85,8.26-18.71,16.52-6.56,27.3-39.29,15.79-54.18-3.71-4.81-12.47-6.73-13.85-13.37-2.67-12.91,4.62-14.09,2.68-18H325.55c.78,20.19,3.46,40.72-2.15,60.41-2.87,10.08-8.23,19.13-12.45,28.66-.26.6-6.9,14.21-7.37,15.18Z" fill="#052842"/>
            <g>
              <path d="M243.8,185.17a3.89,3.89,0,0,0,5,.29l3.22-3.06a3.18,3.18,0,0,0,.12-4.49l-3.24-3.41a3.88,3.88,0,0,0-5-.29l-3.23,3a3.18,3.18,0,0,0-.11,4.49Z" fill="#ffa686"/>
              <path d="M312.72,153.07c3-5.57,10.32-1.87,7.49,4.79C299.83,206,249.6,181.55,249.6,181.55L248,174.18S287.68,198.82,312.72,153.07Z" fill="#ffa686"/>
              <path d="M288.14,176.67c9.32-4.11,17.41-12.08,23.79-24,1.69-3.17,5.8-4.43,7.74-4.43,1.63,0,.21,2.09,1.14,3.5a6.84,6.84,0,0,1,.23,6.51c-7,16.52-17.53,24.47-27.88,28A75.31,75.31,0,0,0,288.14,176.67Z" fill="#ddd"/>
              <g>
                <rect x="230.15" y="163.54" width="13.09" height="37.84" rx="1.17" transform="translate(-1.89 362.45) rotate(-74.66)" fill="#34313a"/>
                <path d="M253.37,189.39a.28.28,0,0,0,.26-.2l1.86-7.14a.27.27,0,0,0-.19-.34l-34.23-9.39h0a.26.26,0,0,0-.29.19l-1.87,7.14a.27.27,0,0,0,.19.33l34.24,9.4Z" fill="#4e4a59"/>
                <path d="M237.87,182.85a3.66,3.66,0,1,0-4.47,2.62A3.65,3.65,0,0,0,237.87,182.85Z" fill="#f7f7f7"/>
                <path d="M222.68,174a.85.85,0,1,0-1,.61A.86.86,0,0,0,222.68,174Z" fill="#f7f7f7"/>
                <path d="M221.94,176.68a.85.85,0,1,0-1,.61A.86.86,0,0,0,221.94,176.68Z" fill="#f7f7f7"/>
                <path d="M221.2,179.38a.86.86,0,1,0-1,.61A.85.85,0,0,0,221.2,179.38Z" fill="#f7f7f7"/>
                <path d="M220.45,182.08a.85.85,0,1,0-1,.61A.85.85,0,0,0,220.45,182.08Z" fill="#f7f7f7"/>
                <path d="M225.37,174.67a.85.85,0,1,0-1,.61A.86.86,0,0,0,225.37,174.67Z" fill="#f7f7f7"/>
                <path d="M224.63,177.37a.86.86,0,1,0-1,.61A.85.85,0,0,0,224.63,177.37Z" fill="#f7f7f7"/>
                <path d="M223.88,180.07a.85.85,0,1,0-1,.61A.85.85,0,0,0,223.88,180.07Z" fill="#f7f7f7"/>
                <path d="M223.14,182.77a.85.85,0,1,0-1,.61A.85.85,0,0,0,223.14,182.77Z" fill="#f7f7f7"/>
                <path d="M228.06,175.36A.86.86,0,1,0,227,176,.85.85,0,0,0,228.06,175.36Z" fill="#f7f7f7"/>
                <path d="M227.31,178.06a.85.85,0,1,0-1,.61A.84.84,0,0,0,227.31,178.06Z" fill="#f7f7f7"/>
                <path d="M226.57,180.76a.85.85,0,1,0-1,.61A.85.85,0,0,0,226.57,180.76Z" fill="#f7f7f7"/>
                <path d="M225.83,183.47a.86.86,0,0,0-.61-1.05.84.84,0,0,0-1,.61.85.85,0,1,0,1.65.44Z" fill="#f7f7f7"/>
                <path d="M230.75,176.05a.86.86,0,1,0-1.05.61A.86.86,0,0,0,230.75,176.05Z" fill="#f7f7f7"/>
                <path d="M230,178.75a.85.85,0,1,0-1,.61A.85.85,0,0,0,230,178.75Z" fill="#f7f7f7"/>
                <path d="M229.26,181.46a.86.86,0,0,0-.61-1.05.85.85,0,0,0-1,.61.85.85,0,1,0,1.65.44Z" fill="#f7f7f7"/>
                <path d="M228.52,184.16a.86.86,0,1,0-1.05.61A.87.87,0,0,0,228.52,184.16Z" fill="#f7f7f7"/>
              </g>
              <path d="M232.46,181.17a1.94,1.94,0,0,0,2.73-.06l4.63-4.38a1.93,1.93,0,0,0,0-2.73h0a1.93,1.93,0,0,0-2.73.05l-4.64,4.39a1.93,1.93,0,0,0,.06,2.73Z" fill="#ffa686"/>
              <path d="M233.78,191.21a1.89,1.89,0,0,0,2.67,0l1.16-1.17a1.89,1.89,0,0,0,0-2.67h0a1.88,1.88,0,0,0-2.66,0l-1.16,1.17a1.89,1.89,0,0,0,0,2.67Z" fill="#ffa686"/>
              <path d="M237.52,192.08a1.89,1.89,0,0,0,2.67,0l1.16-1.17a1.89,1.89,0,0,0,0-2.67h0a1.88,1.88,0,0,0-2.66,0l-1.16,1.17a1.89,1.89,0,0,0,0,2.67Z" fill="#ffa686"/>
              <path d="M241.26,193.19a1.89,1.89,0,0,0,2.67,0l1.16-1.17a1.89,1.89,0,0,0,0-2.67h0a1.89,1.89,0,0,0-2.67,0l-1.16,1.18a1.88,1.88,0,0,0,0,2.66Z" fill="#ffa686"/>
              <path d="M230.22,190.2a1.89,1.89,0,0,0,2.67,0l1.16-1.17a1.88,1.88,0,0,0,0-2.66h0a1.88,1.88,0,0,0-2.66,0l-1.16,1.17a1.88,1.88,0,0,0,0,2.67Z" fill="#ffa686"/>
              <path d="M248.48,175.49a2.2,2.2,0,0,0-2.25-2.13h-7.66a2.19,2.19,0,0,0-2.13,2.25h0a2.19,2.19,0,0,0,2.25,2.13h7.66a2.19,2.19,0,0,0,2.13-2.25Z" fill="#ffa686"/>
            </g>
            <g>
              <path d="M274,217.06h37.13c-1.5,4.93-6.6,7.89-14.06,7.89H274a30.51,30.51,0,0,0-30.48,30.48v37.32h-7.89V255.42A38.4,38.4,0,0,1,274,217.06Z" fill="#e5876a"/>
              <g>
                <g>
                  <g>
                    <path d="M225.39,282h0a9.76,9.76,0,0,0,7-2.44l13.8,13.8H218.41v-6.93C218.41,282.82,221,282.12,225.39,282Z" fill="#5b1017"/>
                    <path d="M248.6,293.89v-1.46a1.92,1.92,0,0,0-1.91-1.91H218.74a1.91,1.91,0,0,0-1.9,1.91v1.46Z" fill="#ddd"/>
                  </g>
                  <path d="M253.47,232c-1.86-2.07-3.65-4.17-5.59-6.13,9-8.2,14.86-10.09,20.61-11.2,8.77-1.69,35.44-4.61,35.44-4.61l12.42,7.16,4,8.43-46.54,1.24a28.33,28.33,0,0,0-18.65,7C254.63,233.27,254,232.65,253.47,232Z" fill="#7f2b25"/>
                  <path d="M318.13,220.93l-46.37,1.23a28.37,28.37,0,0,0-18.66,7l-1.74-1.9c-.75-.83-1.48-1.67-2.22-2.5-.42.36-.83.72-1.26,1.11,1.94,2,3.73,4.06,5.59,6.13.57.64,1.16,1.26,1.74,1.89a28.33,28.33,0,0,1,18.65-7l46.54-1.24Z" fill="#5b1017"/>
                  <polygon points="254.2 235.71 246.1 226.93 250.02 223.32 258.12 232.11 254.2 235.71" fill="#8e2421"/>
                </g>
                <g>
                  <g>
                    <path d="M308,217.78h5v7.88h-5a30.52,30.52,0,0,0-30.48,30.48v34.31h-7.88V256.14A38.41,38.41,0,0,1,308,217.78Z" fill="#e5876a"/>
                    <path d="M285.05,241.69c-2.77-2.51-7.28-3.31-10.26-5.42,7.09-11.08,16.64-19,28-21l1.1-5.21,25.89.53-1,4c0,7.19-5.62,12.65-16.09,12.65H306.8C296.11,227.22,290,230.81,285.05,241.69Z" fill="#7f2b25"/>
                  </g>
                  <path d="M257.47,281.74h0c4.71,0,6.17-1.95,7.93-3.11l14,14v.61H250.38v-7C250.38,282.54,253,281.82,257.47,281.74Z" fill="#7f2b25"/>
                  <path d="M285.07,241.71c-.71-.64-1.42-1.27-2.14-1.89,5.5-8.46,10.3-14.89,25.47-14.89h3.82c8,0,14.71-3.28,16.42-8.27-1,6.21-4.46,10.65-15.92,10.65h-2.49C295.18,227.31,290.08,233.1,285.07,241.71Z" fill="#5b1017"/>
                  <polygon points="284.38 244.51 273.52 237.06 276.49 232.55 287.35 240 284.38 244.51" fill="#8e2421"/>
                  <path d="M281,293.77v-1.49a1.94,1.94,0,0,0-1.93-1.93H250.73a1.94,1.94,0,0,0-1.94,1.93v1.49Z" fill="#f7f7f7"/>
                </g>
              </g>
            </g>
            <path d="M303.93,210.07c3.58-15.82,3.4-43.69,9.39-55.35A16.48,16.48,0,0,1,327.79,146H332c5.94,0,17.85,5.73,18.74,11.61,2.24,14.87-17.88,44.11-21.44,55Z" fill="#f7f7f7"/>
            <g>
              <path d="M320.43,135.65v14.51c0,2.07,2.41,3,2.41,3,.23,0,8.64.22,13.25-6.29V125.27Z" fill="#e5876a"/>
              <rect x="298.64" y="85.41" width="37.45" height="58.64" rx="16.32" fill="#ffa686"/>
              <path d="M331.31,90.2l-.53,34.65c0,9-6.77,16.52-15.78,16.52h-4.81a16.3,16.3,0,0,1-5.48-.94A16.28,16.28,0,0,0,315,144.05h4.81c9,0,16.32-6.18,16.32-15.2V101.73A16.27,16.27,0,0,0,331.31,90.2Z" fill="#e5876a"/>
              <path d="M305.2,122.71a2.73,2.73,0,0,0,2.51,2.83h.74a2.74,2.74,0,0,0,2.51-2.83Z" fill="#e5876a"/>
              <path d="M321.61,109.64a1.27,1.27,0,0,1-1.43,1.08l-8.47-1.19a1.26,1.26,0,0,1-1.08-1.43h0a1.27,1.27,0,0,1,1.43-1.08l8.47,1.18a1.27,1.27,0,0,1,1.08,1.44Z" fill="#3b2416"/>
              <path d="M305,107.84a1.27,1.27,0,0,1-1,1.51l-6,1.27a1.28,1.28,0,0,1-1.51-1h0a1.28,1.28,0,0,1,1-1.51l6-1.27a1.27,1.27,0,0,1,1.5,1Z" fill="#3b2416"/>
              <path d="M302.59,116.65a1.5,1.5,0,1,1-1.5-1.5A1.5,1.5,0,0,1,302.59,116.65Z" fill="#34313a"/>
              <path d="M315.38,116.65a1.5,1.5,0,1,1-1.49-1.5A1.49,1.49,0,0,1,315.38,116.65Z" fill="#34313a"/>
              <polygon points="312.08 135.36 308.7 142.92 305.33 135.36 312.08 135.36" fill="#3b2416"/>
              <path d="M298.64,127.13v1.3A16.32,16.32,0,0,0,315,144.75h4.81a21.93,21.93,0,0,0,8.28-1.49,16.48,16.48,0,0,0,2.39-1.26,1.16,1.16,0,0,0,.28-.26,1.35,1.35,0,0,0,.31-.85v-21c0-.75-.6.6-1.36.6a1.33,1.33,0,0,0-1.28,1v10.42a1.18,1.18,0,0,1,0,.2,4.23,4.23,0,0,1-8.46-.21v-3.73a2.32,2.32,0,0,0-2.32-2.32H301C299.68,125.82,298.64,126.41,298.64,127.13Zm.94,2.32a.82.82,0,0,1,.87-.85h17.13a.92.92,0,0,1,1,.85c-.59,5.58-4.38,11.47-8.41,11.47H308C304,140.92,300.17,135,299.58,129.45Z" fill="#3b2416"/>
            </g>
            <path d="M302.31,130.59c.39,3.54,2.67,6.26,5.44,6.26h1.62c2.77,0,5.06-2.72,5.45-6.26Z" fill="#fff"/>
            <path d="M293.9,92.83a6.11,6.11,0,0,1-.08-.87,5.41,5.41,0,0,1,1.39-3.61A6.23,6.23,0,0,1,301,82.43a3.13,3.13,0,0,1-.16-1,3.26,3.26,0,0,1,4.89-2.84,6.24,6.24,0,0,1,2.72-1,3.24,3.24,0,0,1,5-1,6.13,6.13,0,0,1,7,.16,3.26,3.26,0,0,1,5.67.23,6.65,6.65,0,0,1,1-.11,6.24,6.24,0,0,1,5,2.52,3.25,3.25,0,0,1,2-.68,3.28,3.28,0,0,1,3.28,3.28,3.24,3.24,0,0,1-.15.94,6.22,6.22,0,0,1,4.49,6,5.92,5.92,0,0,1-.19,1.47,6.17,6.17,0,0,1,1.48,4,6,6,0,0,1-.27,1.7,6.17,6.17,0,0,1,.33,9.13,3.33,3.33,0,0,1,.4,1.54,3.29,3.29,0,0,1-2,3,7,7,0,0,1-.68,1.61,6.23,6.23,0,0,1-8.8,8,2.9,2.9,0,0,1-4.74-3.29,2.87,2.87,0,0,1-.28-4,3.55,3.55,0,0,1-1.34-2.76,3.48,3.48,0,0,1,.2-1.13,3.32,3.32,0,0,1-.62-1.91,3.25,3.25,0,0,1,.1-.77,3.59,3.59,0,0,1-1.68-1.78,6.16,6.16,0,0,1-2.77.68,6.4,6.4,0,0,1-6.13-4.61,6.35,6.35,0,0,1-9.23,1.3,4.43,4.43,0,0,1-3.55,1.79,4.15,4.15,0,0,1-1-.13,6.17,6.17,0,0,1-2.43.49A6.26,6.26,0,0,1,292.29,97,6.19,6.19,0,0,1,293.9,92.83Z" fill="#3b2416"/>
            <path d="M337.88,124.7a3.44,3.44,0,0,1-3.44,3.43h0A3.44,3.44,0,0,1,331,124.7v-7.11a3.44,3.44,0,0,1,3.43-3.43h0a3.44,3.44,0,0,1,3.44,3.43Z" fill="#e5876a"/>
            <g>
              <path d="M296.57,157.47l0,4.72a4.49,4.49,0,0,0,9,0v-4.71a4.49,4.49,0,1,0-9,0Zm2.32,0a2.17,2.17,0,0,1,4.33,0l0,4.71a2.16,2.16,0,1,1-4.32,0Z" fill="#8e2421"/>
              <path d="M295.23,131.23l-7.74,0a2.08,2.08,0,0,0,.64-3h.69a2.33,2.33,0,1,0,0-4.65l-21.95.09a2.33,2.33,0,1,0,0,4.65l7.23,0a2.11,2.11,0,0,0,1.72,3.34l5.18,0a1.87,1.87,0,0,0-.19,3l-4.33,0a3.05,3.05,0,1,0,0,6.1l6.5,0a2.29,2.29,0,0,0-1,1.89,2.31,2.31,0,0,0,.65,1.6h-1.3a2.55,2.55,0,1,0,0,5.09l5.81,0a2.54,2.54,0,0,0,1.76-4.37h4a2.33,2.33,0,0,0,0-4.66h-2.52a3,3,0,0,0,0-5.23l4.85,0a1.89,1.89,0,0,0,0-3.78Z" fill="#b7ebf7" opacity="0.3"/>
            </g>
            <path d="M340.46,161.8c0-3.51,4.21-7.87,7.49-8.78,0,0,6.93,4.69,5.1,16.36-11,70.5-50.83,1.38-50.83,1.38l7.2-4S341,220.52,340.46,161.8Z" fill="#ffa686"/>
            <path d="M299.23,156a2.12,2.12,0,0,1,2.81-1l3.38,1.59a10,10,0,0,0-.31,2.39v2.14l-4.87-2.29A2.12,2.12,0,0,1,299.23,156Z" fill="#ffa686"/>
            <path d="M306.07,157l5.06,3.29a4.33,4.33,0,0,1,1.27,6l-1.29,2-8.89,4.2-2.87-1.87c-2-1.3-4.06-5-2.75-7l3.49-5.37A4.32,4.32,0,0,1,306.07,157Z" fill="#ffa686"/>
            <path d="M332,188.31a4.26,4.26,0,0,0,2.89-1.35c3.19-3.2,4.74-11.67,4.63-25.15,0-3.91,3.1-9.21,6.72-10.21h0l1.67,1c.3.2,7.89,4.85,6,17C350.58,191.06,344.11,202,334.7,202a14.31,14.31,0,0,1-4.79-.89A39.42,39.42,0,0,0,332,188.31Z" fill="#fff"/>
            <g>
              <rect x="447.47" y="263.28" width="15.96" height="28.99" rx="2.52" fill="#032133"/>
              <rect x="404.4" y="263.28" width="15.96" height="28.99" rx="2.52" fill="#032133"/>
              <path d="M392.4,276.84a11.42,11.42,0,0,0,11.43,11.42H432a11.42,11.42,0,0,0,11.43-11.42V212.57A11.43,11.43,0,0,0,432,201.14H409.8c-6.31,0-17.4,17.41-17.4,23.72Z" fill="#1e446e"/>
              <path d="M400.07,212.17a11.42,11.42,0,0,1,11.4-11h28.17a11.42,11.42,0,0,1,11.4,11Z" fill="#a33b33"/>
              <path d="M443.4,277.16A11.42,11.42,0,0,1,432,288.26H403.83a11.42,11.42,0,0,1-11.41-11.1Z" fill="#032133"/>
              <path d="M415.25,276.84a11.42,11.42,0,0,0,11.43,11.42H461a11.42,11.42,0,0,0,11.42-11.42V212.46A11.42,11.42,0,0,0,461,201H409.8c-6.31,0,5.45,5.11,5.45,11.42Z" fill="#052842"/>
              <path d="M415.25,212.46s-.1,3.11-.28,8.55c-.07,2.72-.17,6-.28,9.81-.05,1.9-.1,3.92-.16,6s0,4.36,0,6.69v31.87c0,.72,0,1.47,0,2.23a12.13,12.13,0,0,0,10.64,11.23,17.63,17.63,0,0,0,2.38.1H460.1a19.67,19.67,0,0,0,2.39-.1,12.16,12.16,0,0,0,10.25-8.9,12.21,12.21,0,0,0,.38-2.32c.05-.8,0-1.51,0-2.24V243.55c.08-4.66-.09-8.94-.19-12.73s-.19-7.09-.26-9.81c-.16-5.44-.26-8.55-.26-8.55s-.09,3.11-.26,8.55c-.07,2.72-.16,6-.26,9.81s-.27,8.07-.19,12.73v31.87c0,.73,0,1.48,0,2.15a11,11,0,0,1-.34,2,10.42,10.42,0,0,1-1.84,3.73,10.76,10.76,0,0,1-7.2,4.13,17.73,17.73,0,0,1-2.22.08H427.59a17.57,17.57,0,0,1-2.21-.08,10.74,10.74,0,0,1-9.05-7.86,10.35,10.35,0,0,1-.33-2c-.05-.7,0-1.42,0-2.16V243.55c0-2.33,0-4.56,0-6.69s-.11-4.14-.17-6c-.1-3.78-.2-7.09-.28-9.81C415.36,215.57,415.25,212.46,415.25,212.46Z" fill="#09659c"/>
              <path d="M392.4,224s0,.48-.08,1.4-.12,2.24-.22,4-.18,3.77-.3,6.14-.09,5-.11,8v31c0,1,0,1.93,0,2.94a12.41,12.41,0,0,0,.52,3A12.14,12.14,0,0,0,403.54,289H421.7c1.57,0,3.09,0,4.55,0l14.1-.47,5.35-.21-5.35-.21-14.1-.47c-1.46-.07-3-.05-4.55,0H403.58a10.33,10.33,0,0,1-2.59-.38,10.7,10.7,0,0,1-7.4-7.18,11.07,11.07,0,0,1-.46-2.67c0-.93,0-1.93,0-2.9v-31c0-2.92.08-5.59-.11-8s-.22-4.44-.3-6.14-.17-3-.22-4S392.4,224,392.4,224Z" fill="#09659c"/>
              <path d="M409.8,201H472c9.61,0,17.4,10.68,17.4,23.86s-7.79,23.86-17.4,23.86H409.8c-9.61,0-17.4-10.68-17.4-23.86S400.19,201,409.8,201Z" fill="#1e446e"/>
              <path d="M397.57,207.91c3.14-4.27,7.46-6.91,12.23-6.91H472c4.77,0,9.09,2.64,12.24,6.91Z" fill="#09659c"/>
              <path d="M489.36,224.78v.08c0,13.18-7.79,23.86-17.4,23.86H409.8c-9.61,0-17.4-10.68-17.4-23.86,0,0,0-.05,0-.08Z" fill="#032133"/>
              <path d="M427.21,224.86c0,13.18-6.63,23.86-12.94,23.86C398.54,256,392.4,238,392.4,224.86S400.19,201,409.8,201,427.21,211.68,427.21,224.86Z" fill="#1e446e"/>
              <ellipse cx="409.04" cy="224.86" rx="7.68" ry="10.54" fill="#052842"/>
              <path d="M392.4,274.41c-.35-5.93-.57-11.87-.86-17.81-.09-1.49-.05-3,0-4.46V225.41a36.84,36.84,0,0,1,.25-4.55,28.73,28.73,0,0,1,2.47-8.82,21.37,21.37,0,0,1,5.54-7.37A15.56,15.56,0,0,1,408.3,201a16.77,16.77,0,0,1,2.34,0,15.31,15.31,0,0,1,6.75,2.09,19.67,19.67,0,0,1,6.57,6.51,26.56,26.56,0,0,1,3.42,8.52,30.12,30.12,0,0,1,.64,4.53c.06.77.08,1.52.08,2.3s0,1.49-.06,2.26a40.84,40.84,0,0,1-1.45,9,32.94,32.94,0,0,1-1.53,4.31,17.53,17.53,0,0,1-2.32,4,14.72,14.72,0,0,1-3.33,3.26,7.62,7.62,0,0,1-4.47,1.42l.39-.4-.39,23.86-.4-23.86v-.37l.4,0a6.56,6.56,0,0,0,3.75-1.6,13.4,13.4,0,0,0,2.73-3.21c.74-1.22,1.36-2.51,2-3.8a29,29,0,0,0,1.45-4.07,39.5,39.5,0,0,0,1.39-8.58q0-1.06.06-2.19c0-.7,0-1.44-.08-2.15a29.41,29.41,0,0,0-.61-4.28,24.82,24.82,0,0,0-3.18-7.94,17.82,17.82,0,0,0-6-5.91,13.53,13.53,0,0,0-3.87-1.55,13.15,13.15,0,0,0-2-.3,13.38,13.38,0,0,0-2.11,0,13.62,13.62,0,0,0-7.56,3.27,19.61,19.61,0,0,0-5.07,6.76,26.82,26.82,0,0,0-2.32,8.27,82.1,82.1,0,0,0-.23,8.79v22.27c0,1.49.06,3,0,4.46C393,262.54,392.76,268.48,392.4,274.41Z" fill="#09659c"/>
            </g>
            <path d="M312.58,116.23a.59.59,0,1,0,1.18,0,.59.59,0,0,0-1.18,0Z" fill="#fff"/>
            <path d="M299.81,116.23a.6.6,0,0,0,.59.59.59.59,0,0,0,.59-.59.58.58,0,0,0-.59-.59A.59.59,0,0,0,299.81,116.23Z" fill="#fff"/>
          </g>
        </g>
        <g>
          <path d="M297.42,152.62v6.13A13.31,13.31,0,0,1,289.27,171H278.93a13.31,13.31,0,0,1-8.15-12.28v-6.13Z" fill="#8e2421"/>
          <path d="M284.9,169.78c1,0-1.54-1.54-1.54-11v-6.13h-9.47v6.13c0,3.77,2.91,11,7,11Z" fill="#ba2d2d"/>
          <path d="M294.12,152.62v5.8a16.11,16.11,0,0,1-5.65,11.36h.15c4.1,0,8.61-6.46,8.61-11v-6.13Z" fill="#771515"/>
        </g>
      </g>
      <path d="M375.58,64.62a73.69,73.69,0,0,0-19.77,2.44C315.79,78.2,121.1,135.9,119,136.4c-15.63,3.62-27.41,19.83-27.41,39.29,0,19.81,12.22,36.26,28.28,39.47,1.86.38,198.59,58.43,236.8,69.36a69.13,69.13,0,0,0,18.94,2.23c52.1,0,94.34-49.72,94.34-111.06S427.68,64.62,375.58,64.62Z" opacity="0.5" fill="url(#linear-gradient)" style="mix-blend-mode: color-dodge"/>
      <g>
        <g>
          <path d="M26,302.09a2.38,2.38,0,0,0,2.38,2.37H140.8a2.38,2.38,0,0,0,2.38-2.37h0a2.39,2.39,0,0,0-2.38-2.38H28.35A2.39,2.39,0,0,0,26,302.09Z" fill="#1e1f1f" opacity="0.6"/>
          <g>
            <rect x="33.46" y="227.92" width="25.32" height="65.4" fill="#1e446e"/>
            <rect x="34.95" y="228.17" width="25.32" height="65.15" fill="#052842"/>
            <g>
              <rect x="107.85" y="253.16" width="25.32" height="40.16" fill="#1e446e"/>
              <rect x="109.39" y="253.16" width="25.32" height="40.16" fill="#052842"/>
            </g>
            <path d="M25.94,253.63c0,.42.16.77.35.77H142.75c.2,0,.36-.35.36-.77v-3.8c0-.42-.16-.76-.36-.76H26.29c-.19,0-.35.34-.35.76Z" fill="#052842"/>
            <path d="M25.94,253.63c0,.42.14.77.31.77H97.38c.17,0,.31-.35.31-.77v-3.8c0-.42-.14-.76-.31-.76H26.25c-.17,0-.31.34-.31.76Z" fill="#1e446e"/>
            <g>
              <g>
                <path d="M136.14,297.38v1.71a2.57,2.57,0,0,1-2.57,2.57h-1.11a2.57,2.57,0,0,1-2.57-2.57v-1.71Z" fill="#1e1f1f"/>
                <path d="M129.35,299.31v-.76a3,3,0,0,1,3-3h1.31a3,3,0,0,1,3,3v.76Z" fill="#221c1e"/>
                <path d="M104.06,297.38v1.71a2.58,2.58,0,0,1-2.57,2.57h-1.12a2.57,2.57,0,0,1-2.57-2.57v-1.71Z" fill="#1e1f1f"/>
                <path d="M97.26,299.31v-.76a3,3,0,0,1,3-3h1.31a3,3,0,0,1,3,3v.76Z" fill="#221c1e"/>
              </g>
              <g>
                <path d="M67.66,297.38v1.71a2.57,2.57,0,0,1-2.57,2.57H64a2.57,2.57,0,0,1-2.57-2.57v-1.71Z" fill="#1e1f1f"/>
                <path d="M60.86,299.31v-.76a3,3,0,0,1,3-3h1.31a3,3,0,0,1,3,3v.76Z" fill="#221c1e"/>
                <path d="M35.57,297.38v1.71A2.57,2.57,0,0,1,33,301.66H31.88a2.57,2.57,0,0,1-2.57-2.57v-1.71Z" fill="#1e1f1f"/>
                <path d="M28.77,299.31v-.76a3,3,0,0,1,3-3h1.31a3,3,0,0,1,3,3v.76Z" fill="#221c1e"/>
              </g>
              <path d="M25.94,296.11c0,.43.16.77.35.77H142.75c.2,0,.36-.34.36-.77v-3.79c0-.43-.16-.77-.36-.77H26.29c-.19,0-.35.34-.35.77Z" fill="#052842"/>
              <path d="M25.94,296.11c0,.43.14.77.31.77H97.38c.17,0,.31-.34.31-.77v-3.79c0-.43-.14-.77-.31-.77H26.25c-.17,0-.31.34-.31.77Z" fill="#1e446e"/>
            </g>
          </g>
        </g>
        <g>
          <g>
            <rect x="107.85" y="227.92" width="25.32" height="40.16" fill="#1e446e"/>
            <rect x="109.39" y="227.92" width="25.32" height="40.16" fill="#052842"/>
          </g>
          <path d="M25.94,228.4c0,.42.16.76.35.76H142.75c.2,0,.36-.34.36-.76v-3.8c0-.42-.16-.77-.36-.77H26.29c-.19,0-.35.35-.35.77Z" fill="#052842"/>
          <path d="M25.94,228.4c0,.42.14.76.31.76H97.38c.17,0,.31-.34.31-.76v-3.8c0-.42-.14-.77-.31-.77H26.25c-.17,0-.31.35-.31.77Z" fill="#1e446e"/>
        </g>
        <g>
          <rect x="33.03" y="128.81" width="105.6" height="94.89" rx="5.8" fill="#5b5e63"/>
          <rect x="33.03" y="128.81" width="61.36" height="94.89" rx="5.8" fill="#434a50"/>
          <polygon points="46.05 147.65 44.1 147.73 28.16 152.72 28.06 199.76 43.37 204.55 44.16 204.55 46.05 147.65" fill="#5b5e63"/>
          <g>
            <path d="M91.2,207.76a.61.61,0,0,1-.62.61H69.15a.61.61,0,0,1-.61-.61h0a.61.61,0,0,1,.61-.62H90.58a.62.62,0,0,1,.62.62Z" fill="#313438"/>
            <path d="M91.2,210.39a.62.62,0,0,1-.62.62H69.15a.61.61,0,0,1-.61-.62h0a.61.61,0,0,1,.61-.61H90.58a.61.61,0,0,1,.62.61Z" fill="#313438"/>
            <path d="M91.2,213a.61.61,0,0,1-.62.61H69.15a.61.61,0,0,1-.61-.61h0a.61.61,0,0,1,.61-.62H90.58a.62.62,0,0,1,.62.62Z" fill="#313438"/>
            <path d="M91.2,215.66a.62.62,0,0,1-.62.62H69.15a.61.61,0,0,1-.61-.62h0a.61.61,0,0,1,.61-.61H90.58a.61.61,0,0,1,.62.61Z" fill="#313438"/>
            <path d="M91.2,218.3a.61.61,0,0,1-.62.61H69.15a.61.61,0,0,1-.61-.61h0a.61.61,0,0,1,.61-.62H90.58a.62.62,0,0,1,.62.62Z" fill="#313438"/>
            <path d="M91.2,220.93a.62.62,0,0,1-.62.62H69.15a.61.61,0,0,1-.61-.62h0a.61.61,0,0,1,.61-.61H90.58a.61.61,0,0,1,.62.61Z" fill="#313438"/>
          </g>
          <g>
            <path d="M53.08,207.76a.61.61,0,0,1-.61.61H36.39a.61.61,0,0,1-.61-.61h0a.61.61,0,0,1,.61-.62H52.47a.61.61,0,0,1,.61.62Z" fill="#313438"/>
            <path d="M53.08,210.39a.61.61,0,0,1-.61.62H36.39a.61.61,0,0,1-.61-.62h0a.61.61,0,0,1,.61-.61H52.47a.61.61,0,0,1,.61.61Z" fill="#313438"/>
            <path d="M53.08,213a.61.61,0,0,1-.61.61H36.39a.61.61,0,0,1-.61-.61h0a.61.61,0,0,1,.61-.62H52.47a.61.61,0,0,1,.61.62Z" fill="#313438"/>
            <path d="M53.08,215.66a.61.61,0,0,1-.61.62H36.39a.61.61,0,0,1-.61-.62h0a.61.61,0,0,1,.61-.61H52.47a.61.61,0,0,1,.61.61Z" fill="#313438"/>
            <path d="M53.08,218.3a.61.61,0,0,1-.61.61H36.39a.61.61,0,0,1-.61-.61h0a.61.61,0,0,1,.61-.62H52.47a.61.61,0,0,1,.61.62Z" fill="#313438"/>
            <path d="M53.08,220.93a.61.61,0,0,1-.61.62H36.39a.61.61,0,0,1-.61-.62h0a.61.61,0,0,1,.61-.61H52.47a.61.61,0,0,1,.61.61Z" fill="#313438"/>
          </g>
          <path d="M33,134.61l0-.45a4.71,4.71,0,0,1,.23-1.32,6,6,0,0,1,3.32-3.76,9.42,9.42,0,0,1,3.64-.52l4.28-.11,4.86-.12H87.62a7.6,7.6,0,0,1,3.76.68,6,6,0,0,1,2.78,2.76,3.68,3.68,0,0,1,.23.44l.15.48a4.05,4.05,0,0,1,.24,1c0,.33.07.67.09,1V202c0,1.88,0,3.68,0,5.39s-.08,3.34-.12,4.87-.07,2.95-.1,4.27c0,.33,0,.66,0,1l0,.49c0,.16,0,.31,0,.46a5.22,5.22,0,0,1-.15.88c-.1.29-.19.57-.28.84a6,6,0,0,1-3.75,3.32,4.42,4.42,0,0,1-1.32.23l-.46,0,.45-.06a4.3,4.3,0,0,0,1.3-.29A5.75,5.75,0,0,0,93.81,220c.07-.25.14-.51.22-.77a4.82,4.82,0,0,0,.1-.87c0-.15,0-.31,0-.46v-.45c0-.31,0-.64,0-1,0-1.32-.06-2.75-.1-4.27s-.08-3.16-.12-4.87,0-3.51,0-5.39V134.66l-.08-.85a3.28,3.28,0,0,0-.2-.82l-.12-.41c-.06-.13-.14-.25-.2-.37A5,5,0,0,0,91,129.88a6.58,6.58,0,0,0-3.33-.58H49.39l-4.86-.12-4.28-.11a8.89,8.89,0,0,0-3.51.33,5.74,5.74,0,0,0-3.37,3.46,4.28,4.28,0,0,0-.28,1.3Z" fill="#818489"/>
          <path d="M132.82,224.19h-94a6.29,6.29,0,0,1-6.29-6.28v-83.3a6.29,6.29,0,0,1,6.29-6.28h94a6.29,6.29,0,0,1,6.29,6.28v83.3A6.29,6.29,0,0,1,132.82,224.19Zm-94-94.89a5.32,5.32,0,0,0-5.32,5.31v83.3a5.32,5.32,0,0,0,5.32,5.31h94a5.32,5.32,0,0,0,5.32-5.31v-83.3a5.32,5.32,0,0,0-5.32-5.31Z" fill="#818489"/>
          <rect x="41.34" y="147.65" width="38.42" height="57.22" rx="3.5" fill="#4d5054"/>
          <path d="M54.8,199.85l-26.74-.09s11.35,3.71,15.31,5l1.05.2,31.84,0Z" fill="#313438"/>
          <rect x="26.23" y="152.55" width="30.66" height="47.42" rx="2.9" fill="#434a50"/>
          <polygon points="79.77 201.37 56.89 197.07 56.84 154.91 79.72 151.15 79.77 201.37" fill="#5b5e63"/>
          <polygon points="54 152.55 76.96 147.72 44.1 147.71 29 152.55 54 152.55" fill="#818489"/>
          <path d="M49.86,160.63a.61.61,0,0,1-.61.61H31.55a.61.61,0,0,1-.62-.61h0a.62.62,0,0,1,.62-.62h17.7a.61.61,0,0,1,.61.62Z" fill="#313438"/>
          <path d="M49.86,163.26a.61.61,0,0,1-.61.62H31.55a.62.62,0,0,1-.62-.62h0a.61.61,0,0,1,.62-.61h17.7a.61.61,0,0,1,.61.61Z" fill="#313438"/>
          <path d="M49.86,165.9a.61.61,0,0,1-.61.61H31.55a.61.61,0,0,1-.62-.61h0a.62.62,0,0,1,.62-.62h17.7a.61.61,0,0,1,.61.62Z" fill="#313438"/>
          <path d="M49.86,168.53a.61.61,0,0,1-.61.62H31.55a.62.62,0,0,1-.62-.62h0a.61.61,0,0,1,.62-.61h17.7a.61.61,0,0,1,.61.61Z" fill="#313438"/>
          <path d="M49.86,171.17a.61.61,0,0,1-.61.61H31.55a.61.61,0,0,1-.62-.61h0a.62.62,0,0,1,.62-.62h17.7a.61.61,0,0,1,.61.62Z" fill="#313438"/>
          <path d="M49.86,173.8a.61.61,0,0,1-.61.62H31.55a.62.62,0,0,1-.62-.62h0a.61.61,0,0,1,.62-.61h17.7a.61.61,0,0,1,.61.61Z" fill="#313438"/>
          <path d="M49.86,176.76a.61.61,0,0,1-.61.61H31.55a.61.61,0,0,1-.62-.61h0a.62.62,0,0,1,.62-.62h17.7a.61.61,0,0,1,.61.62Z" fill="#313438"/>
          <path d="M49.86,179.39a.61.61,0,0,1-.61.62H31.55a.62.62,0,0,1-.62-.62h0a.61.61,0,0,1,.62-.61h17.7a.61.61,0,0,1,.61.61Z" fill="#313438"/>
          <path d="M49.86,182a.61.61,0,0,1-.61.61H31.55a.61.61,0,0,1-.62-.61h0a.62.62,0,0,1,.62-.62h17.7a.61.61,0,0,1,.61.62Z" fill="#313438"/>
          <path d="M49.86,184.66a.61.61,0,0,1-.61.62H31.55a.62.62,0,0,1-.62-.62h0a.61.61,0,0,1,.62-.61h17.7a.61.61,0,0,1,.61.61Z" fill="#313438"/>
          <path d="M49.86,187.3a.61.61,0,0,1-.61.61H31.55a.61.61,0,0,1-.62-.61h0a.62.62,0,0,1,.62-.62h17.7a.61.61,0,0,1,.61.62Z" fill="#313438"/>
          <path d="M49.86,189.93a.61.61,0,0,1-.61.62H31.55a.62.62,0,0,1-.62-.62h0a.61.61,0,0,1,.62-.61h17.7a.61.61,0,0,1,.61.61Z" fill="#313438"/>
        </g>
        <path d="M132.82,128.81h-7.26a5.8,5.8,0,0,1,5.8,5.8v83.3a5.8,5.8,0,0,1-5.8,5.8h7.26a5.8,5.8,0,0,0,5.8-5.8v-83.3A5.8,5.8,0,0,0,132.82,128.81Z" fill="#313438"/>
        <path d="M76.52,122.62a.34.34,0,0,0,.42.24h0a.34.34,0,0,0,.24-.42L51.19,24a.34.34,0,0,0-.42-.24h0a.34.34,0,0,0-.25.42Z" fill="#313438"/>
        <g>
          <path d="M88.31,128.59c0-.12,0-.23,0-.35a9.12,9.12,0,0,0-18.24,0c0,.12,0,.23,0,.35Z" fill="#313438"/>
          <path d="M79.21,119.12A9.05,9.05,0,0,0,73.72,121c.31,3.12,4.59,5.6,9.83,5.6a15,15,0,0,0,4.47-.65A9.1,9.1,0,0,0,79.21,119.12Z" fill="#434a50"/>
          <path d="M82.21,120.7c.1.85-1.41,1.73-3.38,2s-3.64-.28-3.74-1.13,1.41-1.73,3.38-2S82.11,119.85,82.21,120.7Z" fill="#5b5e63"/>
        </g>
        <path d="M82.6,121.52a.35.35,0,0,0,.07.48h0a.35.35,0,0,0,.48-.07l33.38-45.21a.34.34,0,0,0-.07-.48h0a.35.35,0,0,0-.48.07Z" fill="#313438"/>
      </g>
    </g>
  </g>
</svg>
