<svg xmlns="http://www.w3.org/2000/svg" version="1.1" xmlns:xlink="http://www.w3.org/1999/xlink" xmlns:svgjs="http://svgjs.com/svgjs" width="1440" height="768" preserveAspectRatio="none" viewBox="0 0 1440 768"><g mask="url(&quot;#SvgjsMask1508&quot;)" fill="none"><rect width="1440" height="768" x="0" y="0" fill="url(#SvgjsLinearGradient1509)"></rect><path d="M484 200L146 -138" stroke-width="10" stroke="url(#SvgjsLinearGradient1510)" stroke-linecap="round" class="BottomRight"></path><path d="M238 640L-17 385" stroke-width="10" stroke="url(#SvgjsLinearGradient1511)" stroke-linecap="round" class="TopLeft"></path><path d="M908 89L496 -323" stroke-width="8" stroke="url(#SvgjsLinearGradient1510)" stroke-linecap="round" class="BottomRight"></path><path d="M694 274L289 -131" stroke-width="6" stroke="url(#SvgjsLinearGradient1510)" stroke-linecap="round" class="BottomRight"></path><path d="M1159 146L938 -75" stroke-width="10" stroke="url(#SvgjsLinearGradient1511)" stroke-linecap="round" class="TopLeft"></path><path d="M754 576L544 366" stroke-width="6" stroke="url(#SvgjsLinearGradient1510)" stroke-linecap="round" class="BottomRight"></path><path d="M1104 117L619 -368" stroke-width="10" stroke="url(#SvgjsLinearGradient1510)" stroke-linecap="round" class="BottomRight"></path><path d="M353 173L40 -140" stroke-width="8" stroke="url(#SvgjsLinearGradient1510)" stroke-linecap="round" class="BottomRight"></path><path d="M749 131L1292 674" stroke-width="8" stroke="url(#SvgjsLinearGradient1511)" stroke-linecap="round" class="TopLeft"></path><path d="M1256 488L1762 994" stroke-width="10" stroke="url(#SvgjsLinearGradient1511)" stroke-linecap="round" class="TopLeft"></path><path d="M970 424L1461 915" stroke-width="6" stroke="url(#SvgjsLinearGradient1511)" stroke-linecap="round" class="TopLeft"></path><path d="M322 137L805 620" stroke-width="6" stroke="url(#SvgjsLinearGradient1511)" stroke-linecap="round" class="TopLeft"></path><path d="M1044 664L483 103" stroke-width="6" stroke="url(#SvgjsLinearGradient1510)" stroke-linecap="round" class="BottomRight"></path><path d="M684 191L892 399" stroke-width="6" stroke="url(#SvgjsLinearGradient1510)" stroke-linecap="round" class="BottomRight"></path><path d="M1293 451L1703 861" stroke-width="10" stroke="url(#SvgjsLinearGradient1511)" stroke-linecap="round" class="TopLeft"></path><path d="M593 476L351 234" stroke-width="8" stroke="url(#SvgjsLinearGradient1511)" stroke-linecap="round" class="TopLeft"></path><path d="M163 401L-187 51" stroke-width="10" stroke="url(#SvgjsLinearGradient1511)" stroke-linecap="round" class="TopLeft"></path><path d="M289 228L7 -54" stroke-width="8" stroke="url(#SvgjsLinearGradient1510)" stroke-linecap="round" class="BottomRight"></path><path d="M1016 369L742 95" stroke-width="10" stroke="url(#SvgjsLinearGradient1510)" stroke-linecap="round" class="BottomRight"></path><path d="M271 74L40 -157" stroke-width="8" stroke="url(#SvgjsLinearGradient1511)" stroke-linecap="round" class="TopLeft"></path><path d="M829 482L1136 789" stroke-width="8" stroke="url(#SvgjsLinearGradient1510)" stroke-linecap="round" class="BottomRight"></path><path d="M498 614L1069 1185" stroke-width="6" stroke="url(#SvgjsLinearGradient1510)" stroke-linecap="round" class="BottomRight"></path><path d="M164 346L-276 -94" stroke-width="6" stroke="url(#SvgjsLinearGradient1511)" stroke-linecap="round" class="TopLeft"></path><path d="M3 388L-332 53" stroke-width="10" stroke="url(#SvgjsLinearGradient1511)" stroke-linecap="round" class="TopLeft"></path><path d="M265 712L10 457" stroke-width="6" stroke="url(#SvgjsLinearGradient1510)" stroke-linecap="round" class="BottomRight"></path><path d="M958 516L1452 1010" stroke-width="8" stroke="url(#SvgjsLinearGradient1511)" stroke-linecap="round" class="TopLeft"></path><path d="M446 624L830 1008" stroke-width="8" stroke="url(#SvgjsLinearGradient1511)" stroke-linecap="round" class="TopLeft"></path><path d="M1400 331L1807 738" stroke-width="6" stroke="url(#SvgjsLinearGradient1510)" stroke-linecap="round" class="BottomRight"></path><path d="M1075 763L1374 1062" stroke-width="6" stroke="url(#SvgjsLinearGradient1511)" stroke-linecap="round" class="TopLeft"></path><path d="M693 445L934 686" stroke-width="10" stroke="url(#SvgjsLinearGradient1511)" stroke-linecap="round" class="TopLeft"></path><path d="M923 114L1429 620" stroke-width="8" stroke="url(#SvgjsLinearGradient1511)" stroke-linecap="round" class="TopLeft"></path><path d="M727 398L947 618" stroke-width="8" stroke="url(#SvgjsLinearGradient1511)" stroke-linecap="round" class="TopLeft"></path><path d="M1144 164L1402 422" stroke-width="8" stroke="url(#SvgjsLinearGradient1511)" stroke-linecap="round" class="TopLeft"></path><path d="M24 350L488 814" stroke-width="6" stroke="url(#SvgjsLinearGradient1511)" stroke-linecap="round" class="TopLeft"></path><path d="M650 545L262 157" stroke-width="10" stroke="url(#SvgjsLinearGradient1511)" stroke-linecap="round" class="TopLeft"></path><path d="M49 183L264 398" stroke-width="6" stroke="url(#SvgjsLinearGradient1511)" stroke-linecap="round" class="TopLeft"></path><path d="M987 587L1510 1110" stroke-width="6" stroke="url(#SvgjsLinearGradient1510)" stroke-linecap="round" class="BottomRight"></path><path d="M735 453L410 128" stroke-width="8" stroke="url(#SvgjsLinearGradient1510)" stroke-linecap="round" class="BottomRight"></path><path d="M316 92L513 289" stroke-width="6" stroke="url(#SvgjsLinearGradient1511)" stroke-linecap="round" class="TopLeft"></path><path d="M721 705L1054 1038" stroke-width="6" stroke="url(#SvgjsLinearGradient1510)" stroke-linecap="round" class="BottomRight"></path><path d="M33 440L-364 43" stroke-width="6" stroke="url(#SvgjsLinearGradient1511)" stroke-linecap="round" class="TopLeft"></path></g><defs><mask id="SvgjsMask1508"><rect width="1440" height="768" fill="#ffffff"></rect></mask><linearGradient x1="11.67%" y1="-21.87%" x2="88.33%" y2="121.87%" gradientUnits="userSpaceOnUse" id="SvgjsLinearGradient1509"><stop stop-color="rgba(0, 136, 193, 1)" offset="0"></stop><stop stop-color="rgba(20, 188, 190, 1)" offset="0.41"></stop></linearGradient><linearGradient x1="0%" y1="0%" x2="100%" y2="100%" id="SvgjsLinearGradient1510"><stop stop-color="rgba(206, 207, 220, 0)" offset="0"></stop><stop stop-color="rgba(206, 207, 220, 1)" offset="1"></stop></linearGradient><linearGradient x1="100%" y1="100%" x2="0%" y2="0%" id="SvgjsLinearGradient1511"><stop stop-color="rgba(206, 207, 220, 0)" offset="0"></stop><stop stop-color="rgba(206, 207, 220, 1)" offset="1"></stop></linearGradient></defs></svg>