<svg xmlns="http://www.w3.org/2000/svg" version="1.1" xmlns:xlink="http://www.w3.org/1999/xlink" xmlns:svgjs="http://svgjs.com/svgjs" width="1440" height="560" preserveAspectRatio="none" viewBox="0 0 1440 560"><g mask="url(&quot;#SvgjsMask1162&quot;)" fill="none"><rect width="1440" height="560" x="0" y="0" fill="url(#SvgjsLinearGradient1163)"></rect><path d="M1440 0L892.66 0L1440 93.55z" fill="rgba(255, 255, 255, .1)"></path><path d="M892.66 0L1440 93.55L1440 120.87L505.34999999999997 0z" fill="rgba(255, 255, 255, .075)"></path><path d="M505.3499999999999 0L1440 120.87L1440 287.5L347.51999999999987 0z" fill="rgba(255, 255, 255, .05)"></path><path d="M347.52 0L1440 287.5L1440 457.14L233.15999999999997 0z" fill="rgba(255, 255, 255, .025)"></path><path d="M0 560L707.92 560L0 350.41999999999996z" fill="rgba(0, 0, 0, .1)"></path><path d="M0 350.41999999999996L707.92 560L732.14 560L0 230.02999999999997z" fill="rgba(0, 0, 0, .075)"></path><path d="M0 230.02999999999997L732.14 560L970.53 560L0 216.23999999999998z" fill="rgba(0, 0, 0, .05)"></path><path d="M0 216.23999999999995L970.53 560L1003.1899999999999 560L0 130.88999999999996z" fill="rgba(0, 0, 0, .025)"></path></g><defs><mask id="SvgjsMask1162"><rect width="1440" height="560" fill="#ffffff"></rect></mask><linearGradient x1="15.28%" y1="-39.29%" x2="84.72%" y2="139.29%" gradientUnits="userSpaceOnUse" id="SvgjsLinearGradient1163"><stop stop-color="rgba(227, 238, 250, 1)" offset="0"></stop><stop stop-color="rgba(146, 239, 237, 1)" offset="1"></stop></linearGradient></defs></svg>